<?xml version="1.0" encoding="UTF-8" standalone="no"?>
<!DOCTYPE svg PUBLIC "-//W3C//DTD SVG 1.1//EN" "http://www.w3.org/Graphics/SVG/1.1/DTD/svg11.dtd">
<svg xmlns="http://www.w3.org/2000/svg" version="1.1" viewBox="0 0 225 225">
<g stroke-width="2.00" fill="none" stroke-linecap="butt">
<path stroke="#808080" vector-effect="non-scaling-stroke" d="
  M 214.11 111.60
  A 102.51 102.51 0.0 0 0 111.60 9.09
  A 102.51 102.51 0.0 0 0 9.09 111.60
  A 102.51 102.51 0.0 0 0 111.60 214.11
  A 102.51 102.51 0.0 0 0 214.11 111.60"
/>
<path stroke="#808080" vector-effect="non-scaling-stroke" d="
  M 205.38 111.61
  A 93.77 93.77 0.0 0 0 111.61 17.84
  A 93.77 93.77 0.0 0 0 17.84 111.61
  A 93.77 93.77 0.0 0 0 111.61 205.38
  A 93.77 93.77 0.0 0 0 205.38 111.61"
/>
<path stroke="#808080" vector-effect="non-scaling-stroke" d="
  M 116.00 106.25
  L 116.00 79.50
  Q 116.00 76.95 113.43 76.29
  C 108.50 75.01 107.25 78.22 107.26 82.43
  Q 107.26 94.30 107.22 106.23
  A 0.99 0.99 0.0 0 1 106.23 107.22
  Q 93.88 107.26 81.55 107.27
  C 73.87 107.28 74.90 116.03 80.25 116.01
  Q 93.21 115.97 106.22 116.03
  A 1.00 0.99 0.0 0 1 107.22 117.02
  Q 107.28 129.76 107.25 142.50
  C 107.23 148.76 116.01 148.57 116.00 142.98
  Q 115.98 130.04 116.03 117.03
  A 1.00 0.99 -90.0 0 1 117.02 116.03
  Q 129.04 115.99 141.04 115.99
  C 144.96 115.99 148.80 114.19 146.73 109.62
  Q 145.66 107.26 143.00 107.26
  L 117.00 107.25
  A 1.00 1.00 0.0 0 1 116.00 106.25"
/>
</g>
<path fill="#ffffff" d="
  M 0.00 0.00
  L 225.00 0.00
  L 225.00 225.00
  L 0.00 225.00
  L 0.00 0.00
  Z
  M 214.11 111.60
  A 102.51 102.51 0.0 0 0 111.60 9.09
  A 102.51 102.51 0.0 0 0 9.09 111.60
  A 102.51 102.51 0.0 0 0 111.60 214.11
  A 102.51 102.51 0.0 0 0 214.11 111.60
  Z"
/>
<path fill="#010101" d="
  M 214.11 111.60
  A 102.51 102.51 0.0 0 1 111.60 214.11
  A 102.51 102.51 0.0 0 1 9.09 111.60
  A 102.51 102.51 0.0 0 1 111.60 9.09
  A 102.51 102.51 0.0 0 1 214.11 111.60
  Z
  M 205.38 111.61
  A 93.77 93.77 0.0 0 0 111.61 17.84
  A 93.77 93.77 0.0 0 0 17.84 111.61
  A 93.77 93.77 0.0 0 0 111.61 205.38
  A 93.77 93.77 0.0 0 0 205.38 111.61
  Z"
/>
<path fill="#ffffff" d="
  M 205.38 111.61
  A 93.77 93.77 0.0 0 1 111.61 205.38
  A 93.77 93.77 0.0 0 1 17.84 111.61
  A 93.77 93.77 0.0 0 1 111.61 17.84
  A 93.77 93.77 0.0 0 1 205.38 111.61
  Z
  M 116.00 106.25
  L 116.00 79.50
  Q 116.00 76.95 113.43 76.29
  C 108.50 75.01 107.25 78.22 107.26 82.43
  Q 107.26 94.30 107.22 106.23
  A 0.99 0.99 0.0 0 1 106.23 107.22
  Q 93.88 107.26 81.55 107.27
  C 73.87 107.28 74.90 116.03 80.25 116.01
  Q 93.21 115.97 106.22 116.03
  A 1.00 0.99 0.0 0 1 107.22 117.02
  Q 107.28 129.76 107.25 142.50
  C 107.23 148.76 116.01 148.57 116.00 142.98
  Q 115.98 130.04 116.03 117.03
  A 1.00 0.99 -90.0 0 1 117.02 116.03
  Q 129.04 115.99 141.04 115.99
  C 144.96 115.99 148.80 114.19 146.73 109.62
  Q 145.66 107.26 143.00 107.26
  L 117.00 107.25
  A 1.00 1.00 0.0 0 1 116.00 106.25
  Z"
/>
<path fill="#010101" d="
  M 117.00 107.25
  L 143.00 107.26
  Q 145.66 107.26 146.73 109.62
  C 148.80 114.19 144.96 115.99 141.04 115.99
  Q 129.04 115.99 117.02 116.03
  A 1.00 0.99 -90.0 0 0 116.03 117.03
  Q 115.98 130.04 116.00 142.98
  C 116.01 148.57 107.23 148.76 107.25 142.50
  Q 107.28 129.76 107.22 117.02
  A 1.00 0.99 0.0 0 0 106.22 116.03
  Q 93.21 115.97 80.25 116.01
  C 74.90 116.03 73.87 107.28 81.55 107.27
  Q 93.88 107.26 106.23 107.22
  A 0.99 0.99 0.0 0 0 107.22 106.23
  Q 107.26 94.30 107.26 82.43
  C 107.25 78.22 108.50 75.01 113.43 76.29
  Q 116.00 76.95 116.00 79.50
  L 116.00 106.25
  A 1.00 1.00 0.0 0 0 117.00 107.25
  Z"
/>
</svg>
