<?xml version="1.0" encoding="UTF-8" standalone="no"?>
<!DOCTYPE svg PUBLIC "-//W3C//DTD SVG 1.1//EN" "http://www.w3.org/Graphics/SVG/1.1/DTD/svg11.dtd">
<svg xmlns="http://www.w3.org/2000/svg" version="1.1" viewBox="0 0 200 200">
<path fill="#000000" d="
  M 135.91 154.10
  C 142.29 164.91 125.53 171.84 116.48 173.72
  Q 100.14 177.11 83.74 173.81
  C 76.45 172.35 63.08 167.78 62.94 158.40
  C 62.77 147.52 81.38 142.60 89.55 142.13
  A 1.01 1.00 -1.8 0 0 90.50 141.13
  L 90.50 98.08
  A 1.00 0.99 -89.4 0 0 89.53 97.08
  C 72.57 96.64 11.95 91.70 12.36 65.30
  C 12.44 60.51 11.88 54.78 13.19 51.09
  C 18.67 35.75 46.71 29.83 60.42 27.66
  Q 105.78 20.46 150.68 29.82
  C 162.44 32.27 182.44 38.91 186.77 50.60
  C 188.39 54.97 188.05 67.96 186.41 72.18
  C 182.68 81.81 165.05 88.78 154.80 91.25
  Q 132.98 96.50 110.49 97.11
  A 1.00 1.00 0.0 0 0 109.52 98.11
  L 109.49 141.16
  A 1.01 1.00 1.8 0 0 110.44 142.16
  C 119.31 142.66 131.32 146.32 135.91 154.10
  Z
  M 181.12 51.86
  C 174.11 39.65 147.43 34.60 134.75 32.78
  C 113.09 29.68 90.40 29.68 68.68 32.38
  C 54.89 34.09 40.18 37.28 27.82 43.83
  C 18.64 48.71 14.36 56.22 24.67 63.10
  C 35.86 70.57 50.95 73.96 64.07 75.87
  Q 101.32 81.28 138.51 75.60
  C 151.61 73.60 172.85 68.52 180.73 57.66
  A 1.02 1.02 0.0 0 0 180.91 57.15
  L 181.25 52.43
  A 0.93 0.90 -58.8 0 0 181.12 51.86
  Z
  M 157.00 77.26
  C 124.67 86.54 86.59 86.28 53.77 79.91
  Q 43.03 77.82 32.83 73.91
  Q 25.94 71.26 20.04 67.01
  Q 18.06 65.58 18.47 67.99
  Q 18.96 70.82 21.03 72.97
  C 27.51 79.72 38.19 83.23 47.04 85.40
  Q 74.60 92.15 103.00 91.31
  C 126.42 90.63 155.35 89.34 176.07 75.62
  Q 180.41 72.74 181.41 68.12
  Q 181.94 65.71 179.88 67.08
  Q 170.36 73.42 157.00 77.26
  Z
  M 103.70 98.21
  A 0.79 0.79 0.0 0 0 102.91 97.42
  L 97.09 97.42
  A 0.79 0.79 0.0 0 0 96.30 98.21
  L 96.30 154.17
  A 0.79 0.79 0.0 0 0 97.09 154.96
  L 102.91 154.96
  A 0.79 0.79 0.0 0 0 103.70 154.17
  L 103.70 98.21
  Z
  M 126.16 152.72
  Q 119.09 148.74 110.85 147.95
  A 0.99 0.99 0.0 0 0 109.76 148.94
  L 109.75 158.26
  Q 109.75 161.01 107.00 161.00
  L 92.81 160.98
  Q 90.25 160.98 90.24 158.01
  L 90.24 148.94
  A 1.00 1.00 0.0 0 0 89.13 147.95
  Q 79.71 148.96 71.72 153.93
  C 64.52 158.40 72.25 163.99 76.30 165.49
  Q 94.39 172.20 114.62 168.30
  C 120.98 167.08 140.05 160.54 126.16 152.72
  Z"
/>
</svg>
